HIERARCHY
ROOT Hips
{
    OFFSET 0.0 0.0 0.0
    CHANNELS 6 Xposition Yposition Zposition Zrotation Xrotation Yrotation
    JOINT LeftHipJoint
    {
        OFFSET 0.1 0.0 0.0
        CHANNELS 3 Zrotation Xrotation Yrotation
        JOINT LeftUpLeg
        {
            OFFSET 119.77499374707591 0.0 0.0
            CHANNELS 3 Zrotation Xrotation Yrotation
            JOINT LeftLeg
            {
                OFFSET 0.0 0.0 -410.6360788006871
                CHANNELS 3 Zrotation Xrotation Yrotation
                JOINT LeftFoot
                {
                    OFFSET 0.0 0.0 -399.1556233972859
                    CHANNELS 3 Zrotation Xrotation Yrotation
                    End Site
                    {
                        OFFSET 0.0 -0.1 0.0
                    }
                }
            }
        }
    }
    JOINT LowerBack
    {
        OFFSET 0.0 0.0 0.1
        CHANNELS 3 Zrotation Xrotation Yrotation
        JOINT Spine
        {
            OFFSET 0.0 0.0 221.59436099745972
            CHANNELS 3 Zrotation Xrotation Yrotation
            JOINT Spine1
            {
                OFFSET 0.0 0.0 250.80503785956276
                CHANNELS 3 Zrotation Xrotation Yrotation
                JOINT LeftShoulder
                {
                    OFFSET 0.1 0.0 0.0
                    CHANNELS 3 Zrotation Xrotation Yrotation
                    JOINT LeftArm
                    {
                        OFFSET 137.1664149867392 0.0 0.0
                        CHANNELS 3 Zrotation Xrotation Yrotation
                        JOINT LeftForeArm
                        {
                            OFFSET 261.3603223669219 0.0 0.0
                            CHANNELS 3 Zrotation Xrotation Yrotation
                            JOINT LeftHand
                            {
                                OFFSET 241.05471793440273 0.0 0.0
                                CHANNELS 3 Zrotation Xrotation Yrotation
                                End Site
                                {
                                    OFFSET 0.1 0.0 0.0
                                }
                            }
                        }
                    }
                }
                JOINT Neck
                {
                    OFFSET 0.0 0.0 0.1
                    CHANNELS 3 Zrotation Xrotation Yrotation
                    JOINT Neck1
                    {
                        OFFSET 0.0 0.0 112.26540609539651
                        CHANNELS 3 Zrotation Xrotation Yrotation
                        End Site
                        {
                            OFFSET 0.0 0.0 115.87311860670181
                        }
                    }
                }
                JOINT RightShoulder
                {
                    OFFSET -0.1 0.0 0.0
                    CHANNELS 3 Zrotation Xrotation Yrotation
                    JOINT RightArm
                    {
                        OFFSET -137.1664149867392 0.0 0.0
                        CHANNELS 3 Zrotation Xrotation Yrotation
                        JOINT RightForeArm
                        {
                            OFFSET -261.3603223669219 0.0 0.0
                            CHANNELS 3 Zrotation Xrotation Yrotation
                            JOINT RightHand
                            {
                                OFFSET -241.05471793440273 0.0 0.0
                                CHANNELS 3 Zrotation Xrotation Yrotation
                                End Site
                                {
                                    OFFSET -0.1 0.0 0.0
                                }
                            }
                        }
                    }
                }
            }
        }
    }
    JOINT RightHipJoint
    {
        OFFSET -0.1 0.0 0.0
        CHANNELS 3 Zrotation Xrotation Yrotation
        JOINT RightUpLeg
        {
            OFFSET -119.77499374707591 0.0 0.0
            CHANNELS 3 Zrotation Xrotation Yrotation
            JOINT RightLeg
            {
                OFFSET 0.0 0.0 -410.6360788006871
                CHANNELS 3 Zrotation Xrotation Yrotation
                JOINT RightFoot
                {
                    OFFSET 0.0 0.0 -399.1556233972859
                    CHANNELS 3 Zrotation Xrotation Yrotation
                    End Site
                    {
                        OFFSET 0.0 -0.1 0.0
                    }
                }
            }
        }
    }
}
MOTION
Frames: 9
Frame Time: 0.03333333333333333
0.0 0.0 823.5044974937188 25.32947137244872 3.327971417246651 8.17681476727271 -7.413983235006126e-33 -3.975693351829396e-16 -2.1369351766083005e-15 -0.7406811297350454 -22.138187603729904 -6.710808397046546 -2.579063695451431 28.453876993898053 3.691809400522574 3.1805546814635164e-15 1.1034765745125397e-32 3.9756933518293955e-16 -7.413983235006126e-33 -3.975693351829396e-16 -2.1369351766083005e-15 -0.04049020278962594 -1.273054554706981 -4.119413268456051 -1.96664128238236 3.6339667318962196e-16 1.994376755063505e-15 0.0 0.0 1.987846675914698e-16 -26.68662280387092 6.61439202215909 75.11821796285632 -24.166134602439584 9.367235844280248e-15 -2.096633394860572e-14 0.0 0.0 7.951386703658792e-16 0.0 0.0 1.987846675914698e-16 -19.619335580471343 9.045125308738347 -17.30626592828612 0.0 0.0 1.987846675914698e-16 -8.17523110659508 -30.25216651995127 -61.42457918065752 139.7753974478412 -5.173945266762697e-15 4.879542067186361e-15 0.0 0.0 0.0 -7.413983235006126e-33 -3.975693351829396e-16 -2.1369351766083005e-15 -0.4708842716082008 -14.481932028129053 -6.4473532298586935 -1.705978967092803 20.45292906626611 2.5521766297227844 0.0 0.0 5.963540027744094e-16
0.0 0.0 823.5044974937188 25.523653064031556 2.7053446765745788 8.037241139309758 0.0 0.0 6.460501696722769e-16 -0.6348535877819498 -21.13053316935592 -6.483396723394145 -2.5234914592115216 28.056971815482093 3.4619174265435646 0.0 0.0 -3.975693351829396e-16 0.0 0.0 6.460501696722769e-16 -0.02631849832415534 -0.9165297921789969 -3.8787087605980832 -1.695883463551406 -1.9140844525938464e-16 -4.998490287946011e-16 0.0 0.0 1.987846675914698e-16 -26.99385829164614 7.564096695737689 74.98941224469468 -24.724364487391167 -6.6604375223747e-15 8.10486306139497e-15 6.344990303447103e-32 1.590277340731758e-15 -4.572047354603804e-15 0.0 0.0 1.987846675914698e-16 -18.232263514782627 8.482087354143761 -17.56445123753828 0.0 0.0 1.987846675914698e-16 -8.289175980523428 -29.961584911499585 -61.35794628746368 139.52730050398762 -7.081510634893979e-16 6.518528700469277e-15 0.0 0.0 0.0 0.0 0.0 6.460501696722769e-16 -0.40803788909570554 -13.90750923143751 -6.243027948242838 -1.7588944948934828 21.106333558322895 2.3264800386278277 0.0 0.0 -3.975693351829396e-16
0.0 0.0 823.5044974937188 25.43597803354232 2.4233713908390486 8.059273235766636 0.0 0.0 -5.466578358765419e-16 -0.6477606058466622 -20.51749949288641 -6.304005401808213 -2.309211551170589 27.34570024093804 2.952916041166151 -8.276074308844047e-33 -1.5902773407317584e-15 -5.963540027744094e-16 0.0 0.0 -5.466578358765419e-16 -0.020838410005292927 -0.6884010519197513 -3.8668039584747596 -1.5458677111343837 -2.0982806294265786e-16 8.172305699757794e-16 0.0 0.0 4.969616689786745e-17 -27.016169042402552 7.241136460382893 74.53019084701872 -25.029138857768057 5.150689563776117e-16 -9.659556859744467e-15 -1.5902773407317584e-15 3.586298867165754e-32 -2.5842006786891076e-15 0.0 0.0 4.969616689786745e-17 -17.31332845178312 7.896642132013389 -17.741144001197352 0.0 0.0 4.969616689786745e-17 -8.163657425488514 -30.12761191658991 -60.953765875160514 138.9940268007783 2.22801802985184e-15 -5.958158103455555e-15 0.0 0.0 0.0 0.0 0.0 -5.466578358765419e-16 -0.4204599821452842 -13.596376769441505 -6.250932986683708 -1.747388971242613 21.33088871570677 2.141509727285954 4.827710013492361e-33 -1.3914926731402886e-15 3.975693351829396e-16
0.0 0.0 823.5044974937188 25.406906383747557 2.9282891218446467 8.181648744209177 0.0 0.0 1.987846675914698e-16 -0.6885722822332163 -20.964444052063243 -5.978123075258242 -2.065141151896336 26.949364883545556 2.166233579795736 3.1805546814635168e-15 1.1034765745125397e-32 3.975693351829396e-16 0.0 0.0 1.987846675914698e-16 -0.028479434476865118 -0.9068483654514872 -3.5324254514179048 -1.2153440912681186 -1.8902284797646066e-16 -9.214356264807231e-16 0.0 0.0 -4.472655020808071e-16 -27.78911781270704 7.070858343190454 73.95583367076422 -24.53943873752605 -8.026459387804086e-16 3.690636626116309e-15 1.5902773407317584e-15 0.0 0.0 0.0 0.0 -4.472655020808071e-16 -16.088823462921763 6.771023917416717 -17.487101591766162 0.0 0.0 -4.472655020808071e-16 -8.374892974211082 -31.158889736178107 -60.870390476754864 136.93627834246965 -5.917190577058574e-15 -2.3346451554545025e-15 7.951386703658792e-16 0.0 0.0 0.0 0.0 1.987846675914698e-16 -0.4495013017828725 -14.011260944373946 -6.644451523447406 -1.8747044115910974 21.331982390318696 2.228449416272689 0.0 0.0 0.0
0.0 0.0 823.5044974937188 25.4812083802866 2.805323170520116 8.299152969166483 3.1805546814635164e-15 -9.655420026984722e-33 -3.478731682850721e-16 -0.7233147459472177 -20.68518489645698 -6.206916388330181 -2.1339812728642937 27.10983771930807 2.268337962007189 0.0 0.0 -3.9756933518293955e-16 3.1805546814635164e-15 -9.655420026984722e-33 -3.478731682850721e-16 -0.03254655470141717 -0.9723099558325254 -3.72111994460352 -1.200324265374713 -1.7743128801415261e-16 -2.03951325526455e-15 0.0 0.0 2.2363275104040355e-16 -28.043773578257834 7.015550223868403 73.80477711611677 -24.942543430360132 -2.649269256909389e-16 -6.16624727099026e-15 0.0 0.0 0.0 0.0 0.0 2.2363275104040355e-16 -15.810038296676773 6.493336850232786 -17.485625563394255 0.0 0.0 2.2363275104040355e-16 -8.359983037249489 -31.00369184546036 -60.697487858940015 136.55404236386693 -4.708739474875095e-15 1.1818740282543859e-14 0.0 0.0 0.0 3.1805546814635164e-15 -9.655420026984722e-33 -3.478731682850721e-16 -0.4714688502786566 -13.798344309521317 -6.764494529683324 -1.8822539861269516 21.410653193341936 2.253470454895253 0.0 0.0 3.975693351829396e-16
0.0 0.0 823.5044974937188 25.468293401243837 2.8418802335672058 8.327092963598346 0.0 0.0 7.702905869169454e-16 -0.7000568017869996 -20.58863309834067 -6.191251603341589 -2.136995100488531 26.91302642127445 2.296386359284256 0.0 0.0 -5.963540027744094e-16 0.0 0.0 7.702905869169454e-16 -0.03517370499844536 -1.0800966366325457 -3.748561224983738 -1.0732265109334729 1.9714694087773715e-16 1.7579067971645898e-16 0.0 0.0 -3.2302508483613845e-16 -28.17568640235689 7.246933267523028 73.75484521904353 -25.224515460030812 4.980901752884993e-15 -1.4977812326437956e-14 0.0 0.0 -6.957463365701443e-15 0.0 0.0 -3.2302508483613845e-16 -15.72078672548338 6.3283619754268425 -17.275758941107387 0.0 0.0 -3.2302508483613845e-16 -8.428980648994438 -31.039898938547438 -60.34283296075073 136.3223786975537 -5.9045983643507975e-15 -2.366311577714114e-15 0.0 0.0 0.0 0.0 0.0 7.702905869169454e-16 -0.4554630879010798 -13.705045033920632 -6.759963126415067 -1.9013505891015425 21.404920892817078 2.3353124025896475 3.1805546814635164e-15 0.0 0.0
0.0 0.0 823.5044974937188 25.577961869781067 2.9925008671673283 8.36108942213074 0.0 0.0 -2.4848083448933725e-16 -0.6631875014375668 -20.49931685450379 -6.181641977934041 -2.1164253425488164 26.220409004532787 2.0346984881299925 0.0 0.0 1.987846675914698e-16 0.0 0.0 -2.4848083448933725e-16 -0.035481742611751604 -1.1443837775478634 -3.5049462238954128 -0.7502406700383908 4.0016371605407446e-16 -3.949579128330046e-16 0.0 0.0 4.9696166897867443e-17 -27.010484985902732 7.2170283715244095 73.54613041384434 -26.022798223620246 2.813372757342431e-15 9.015046605148229e-15 1.5902773407317588e-15 -4.1380371544220234e-32 -2.9817700138720476e-15 0.0 0.0 4.9696166897867443e-17 -15.211643840639933 6.029483964306503 -17.3010192174936 0.0 0.0 4.9696166897867443e-17 -9.08186846099149 -31.117710078545276 -60.09181338906674 135.9631887370317 1.1230536190830325e-14 -2.3199400702569166e-15 0.0 0.0 0.0 0.0 0.0 -2.4848083448933725e-16 -0.42535113035247263 -13.448348237076955 -6.905402780368207 -1.9547726656271356 21.002475562147897 2.4667970052073676 0.0 0.0 0.0
0.0 0.0 823.5044974937188 25.588595675081773 2.9331318484730744 8.310764876710408 0.0 0.0 -6.957463365701443e-16 -0.6479173793273534 -20.171749981684254 -6.163242283939279 -2.101926179118118 26.08205206203937 2.0161175491629098 -3.1805546814635168e-15 -1.5902773407317584e-15 7.951386703658792e-16 0.0 0.0 -6.957463365701443e-16 -0.03441005624349979 -1.1163889743683955 -3.4032997476424205 -0.6946302652320698 1.909486190826811e-16 1.2932815841394246e-15 0.0 0.0 -1.2424041724466862e-16 -26.924370143024376 7.459204815117012 73.51663143829738 -26.26557443326806 -8.710959350405272e-15 1.6338736558930898e-14 0.0 0.0 -1.7890620083232284e-15 0.0 0.0 -1.2424041724466862e-16 -15.062541149891853 5.981722617875706 -17.337695277637273 0.0 0.0 -1.2424041724466862e-16 -9.537741318092166 -30.878788779425843 -60.22338050512264 135.50458321088644 -8.295950484480863e-15 3.479170908891613e-15 0.0 0.0 0.0 0.0 0.0 -6.957463365701443e-16 -0.4167806330882835 -13.26516308308192 -6.868089470725531 -1.9295171187713482 20.849632618147947 2.367114556777385 0.0 0.0 3.975693351829396e-16
0.0 0.0 823.5044974937188 25.50214687614124 2.7329469747171693 8.233712593158552 0.0 0.0 4.969616689786745e-17 -0.620335125008691 -19.757460155148156 -6.136602921540976 -2.088379266470611 25.846287207671253 2.0412631048774927 0.0 0.0 -5.963540027744094e-16 0.0 0.0 4.969616689786745e-17 -0.03178586188489381 -1.053046044165032 -3.198008602104236 -0.6124682996213132 4.913868615924575e-18 -9.193659557710568e-16 -8.405387969919735e-34 -1.9878466759146977e-16 -4.845376272542075e-16 -26.65709020404679 7.654922413288673 73.48263476375412 -26.455501776799125 -9.10346611137818e-15 1.0929110960850335e-14 0.0 0.0 -1.7890620083232284e-15 -8.405387969919735e-34 -1.9878466759146977e-16 -4.845376272542075e-16 -14.94833993922252 6.178603305006436 -17.375041332334806 -8.405387969919735e-34 -1.9878466759146977e-16 -4.845376272542075e-16 -9.468868250256268 -30.51194172646283 -60.21580164423882 134.9178383635501 -4.990716803040901e-16 -7.094403982493238e-15 1.5902773407317584e-15 0.0 0.0 0.0 0.0 4.969616689786745e-17 -0.3960629683314651 -12.884219724157628 -6.831541220249376 -1.9113183956865638 20.655896811300103 2.3553098164017077 0.0 0.0 -7.951386703658792e-16
